<?xml version="1.0" encoding="UTF-8" standalone="no"?>
<svg width="80px" height="16px" viewBox="0 0 80 16" version="1.1" xmlns="http://www.w3.org/2000/svg" xmlns:xlink="http://www.w3.org/1999/xlink">
    <!-- Generator: sketchtool 3.6.1 (26313) - http://www.bohemiancoding.com/sketch -->
    <title>102E247B-3B3A-41CE-A5EA-22AAD666E7F4</title>
    <desc>Created with sketchtool.</desc>
    <defs></defs>
    <g id="Page-1" stroke="none" stroke-width="1" fill="none" fill-rule="evenodd">
        <g id="Главная-страница-Вариант-4.-Hover-Chocotravel" transform="translate(-503.000000, -96.000000)">
            <g id="Group-2-Copy" transform="translate(0.000000, 70.000000)">
                <g id="Group-13" transform="translate(489.000000, 4.000000)">
                    <g id="1-copy-5" transform="translate(14.000000, 6.000000)">
                        <g id="Page-1" transform="translate(0.000000, 16.000000)">
                            <g id="Group-3" transform="translate(60.063091, 0.192606)" fill="#FA271F">
                                <path d="M9.97733754,2.51035962 C9.97733754,2.51035962 12.5274953,-1.75462461 17.6222587,0.968656151 C21.0425741,2.79755205 19.741123,7.56550158 17.3620694,10.218877 C14.6564543,13.2359117 9.97733754,15.6467634 9.97733754,15.6467634 C9.97733754,15.6467634 5.29822082,13.2359117 2.59260568,10.218877 C0.213047319,7.56550158 -1.08789905,2.79755205 2.3324164,0.968656151 C7.42717981,-1.75462461 9.97733754,2.51035962 9.97733754,2.51035962" id="Fill-1"></path>
                            </g>
                            <path d="M64.0945363,10.1346877 C63.7677224,10.1346877 63.5009716,9.90276341 63.5009716,9.56762145 C63.5009716,9.2324795 63.7848833,8.98288959 64.0945363,8.98288959 C64.4465868,8.98288959 64.7047571,9.25796845 64.7047571,9.57620189 C64.7047571,9.79979811 64.5238107,10.1346877 64.0945363,10.1346877" id="Fill-4" fill="#909090"></path>
                            <path d="M65.4120631,4.94394953 L66.2007066,4.64464353 L66.2007066,5.87265615 L66.2607697,5.94230915 C66.3304227,5.92262461 66.3407697,5.91252997 66.4003281,5.84312934 C66.8699811,5.26344479 66.9194448,5.20363407 67.1692871,5.00401262 C67.3383722,4.8745489 67.6084038,4.67492744 68.017489,4.67492744 C68.825817,4.67492744 68.9358486,5.33360252 68.9855647,5.8226877 L69.0150915,5.84312934 C69.0254385,5.84312934 69.0352808,5.83252997 69.045123,5.83252997 C69.1054385,5.80249842 69.1551546,5.71265615 69.2048707,5.66294006 C69.9339558,4.89423344 70.3031672,4.66483281 70.8220315,4.66483281 C70.9517476,4.66483281 71.3111167,4.68502208 71.550612,5.02394953 C71.6906751,5.22357098 71.7408959,5.39316088 71.7408959,6.20174132 L71.7408959,10.0051483 L70.882347,10.0051483 L70.882347,6.29208833 C70.882347,5.86256151 70.882347,5.3633817 70.3528833,5.3633817 C69.9639874,5.3633817 69.5942713,5.81259306 69.0052492,6.55101577 L69.0052492,10.0051483 L68.147205,10.0051483 L68.147205,6.13208833 C68.147205,5.41309779 67.8978675,5.37322397 67.6783091,5.37322397 C67.48853,5.37322397 67.3186877,5.4433817 66.9593186,5.78281388 C66.799571,5.93221451 66.7400126,6.00211987 66.270612,6.63126814 L66.270612,10.0051483 L65.4120631,10.0051483 L65.4120631,4.94394953 Z" id="Fill-6" fill="#FFFFFF"></path>
                            <path d="M75.9631293,6.88080757 C75.9631293,5.98213249 75.6234448,5.31361514 74.915306,5.31361514 C74.4857792,5.31361514 74.146347,5.57304732 73.9767571,5.97229022 C73.8170095,6.35159621 73.8071672,6.70112303 73.7968202,6.88080757 L75.9631293,6.88080757 Z M76.8618044,7.4895142 L73.7672934,7.4895142 C73.7569464,8.65771609 74.0961262,9.43601262 75.0245804,9.43601262 C75.6337918,9.43601262 75.9227508,9.14629653 76.0830032,8.99714826 L76.6013628,9.47588644 C76.2624353,9.77544479 75.8530978,10.1345615 74.904959,10.1345615 C73.6971356,10.1345615 72.8489338,9.17658044 72.8489338,7.53948265 C72.8489338,4.88459306 74.4262208,4.66478233 74.8951167,4.66478233 C76.1524038,4.66478233 76.8211735,5.73279495 76.8517098,7.01052366 L76.8618044,7.4895142 Z" id="Fill-8" fill="#FFFFFF"></path>
                            <path d="M5.67823344,3.99240379 C5.5555836,2.90874448 5.03646688,1.93183596 3.8155205,1.93183596 C2.70107256,1.93183596 2.22839117,2.80174132 1.98384858,3.39732492 C1.57198738,4.40451735 1.52605678,5.96161514 1.52605678,6.08350789 C1.52605678,8.54079495 1.96921136,10.9375142 3.8155205,10.9375142 C4.70082019,10.9375142 5.15861199,10.2962524 5.29615142,10.0827508 C5.60176656,9.56363407 5.66258675,8.92237224 5.69312303,8.55644164 L7.21943218,8.83076341 C7.15785489,9.71631546 6.83810726,10.6775773 6.16630915,11.3493754 C5.20454259,12.311142 4.10599369,12.311142 3.67798107,12.311142 C2.76214511,12.311142 0,11.8377035 0,6.44969085 C0,3.87051104 0.655646688,0.603634069 3.8155205,0.603634069 C4.53324921,0.603634069 5.4637224,0.817640379 6.15091483,1.5197224 C6.91381703,2.29827129 7.06675079,3.18357098 7.14321767,3.71782965 L5.67823344,3.99240379 Z" id="Fill-10" fill="#3F3F40"></path>
                            <path d="M9.38781073,1.06185489 L10.7614385,0.497312303 L10.7614385,5.19813249 C10.7614385,5.30513565 10.7919748,5.35081388 10.883836,5.35081388 C10.9600505,5.35081388 11.1281262,5.07623975 11.2651609,4.87788013 C11.8602397,3.99232808 12.5931104,3.76343218 13.2797981,3.76343218 C14.409388,3.76343218 14.8674322,4.54198107 14.8674322,5.70235962 L14.8674322,11.9446309 L13.5094511,11.9446309 L13.5094511,5.74778549 C13.5094511,5.16784858 13.3259811,4.78601893 12.7460442,4.78601893 C12.4560757,4.78601893 12.1504606,4.92355836 11.8602397,5.15245426 C11.4635205,5.47321136 11.0519117,6.08343218 10.7614385,6.51119243 L10.7614385,11.9446309 L9.38781073,11.9446309 L9.38781073,1.06185489 Z" id="Fill-12" fill="#3F3F40"></path>
                            <path d="M17.9973502,8.05244164 C17.9973502,8.66341956 18.2113565,10.9220946 19.7984858,10.9220946 C21.2637224,10.9220946 21.5231546,9.0601388 21.5231546,7.91515457 C21.5231546,7.38114826 21.4317981,6.54152681 21.2480757,6.02266246 C21.0656151,5.50329338 20.7294637,5.16764669 20.3632808,5.01547003 C20.1803155,4.93900315 19.9817035,4.90846688 19.7830915,4.90846688 C18.272429,4.90846688 17.9973502,6.81660568 17.9973502,8.05244164 M19.7220189,3.76348265 C21.2331861,3.76348265 21.9663091,4.55692114 22.3781703,5.33547003 C22.7446057,6.03780442 22.9732492,7.21307256 22.9732492,7.99162145 C22.9732492,10.3883407 21.7523028,12.1125047 19.7830915,12.1125047 C18.3940694,12.1125047 17.8138801,11.3950284 17.5087697,11.0137035 C16.9139432,10.2656909 16.6542587,9.18203155 16.6542587,7.80840379 C16.6542587,5.03061199 18.073817,3.76348265 19.7220189,3.76348265" id="Fill-14" fill="#3F3F40"></path>
                            <path d="M28.5301703,6.17521767 C28.4080252,5.82392429 28.1029148,4.90834069 27.1716845,4.90834069 C26.2253123,4.90834069 25.5075836,5.90039117 25.5075836,7.54884543 C25.5075836,8.22039117 25.5540189,9.09029653 25.7516215,9.63994953 C25.9661325,10.2198864 26.4234196,10.9376151 27.294082,10.9376151 C28.1334511,10.9376151 28.5301703,10.2198864 28.6523155,9.41105363 L29.8732618,9.96045426 C29.614082,11.2732618 28.6523155,12.1123785 27.294082,12.1123785 C24.240959,12.1123785 24.1649968,8.52550158 24.1649968,8.08335647 C24.1649968,7.31994953 24.1649968,6.05332492 24.9738297,4.93912934 C25.6756593,3.97736278 26.5763533,3.79414511 27.1260063,3.79414511 C27.4462587,3.79414511 28.5455647,3.88575394 29.1709274,4.72512303 C29.4611483,5.10670032 29.5224732,5.21370347 29.6905489,5.59502839 L28.5301703,6.17521767 Z" id="Fill-16" fill="#3F3F40"></path>
                            <path d="M32.4078233,8.05244164 C32.4078233,8.66341956 32.6213249,10.9220946 34.208959,10.9220946 C35.6741956,10.9220946 35.9336278,9.0601388 35.9336278,7.91515457 C35.9336278,7.38114826 35.8417666,6.54152681 35.6590536,6.02266246 C35.4760883,5.50329338 35.1399369,5.16764669 34.7737539,5.01547003 C34.5902839,4.93900315 34.3921767,4.90846688 34.1935647,4.90846688 C32.6823975,4.90846688 32.4078233,6.81660568 32.4078233,8.05244164 M34.1324921,3.76348265 C35.6436593,3.76348265 36.3767823,4.55692114 36.7881388,5.33547003 C37.1550789,6.03780442 37.3837224,7.21307256 37.3837224,7.99162145 C37.3837224,10.3883407 36.162776,12.1125047 34.1935647,12.1125047 C32.8045426,12.1125047 32.224858,11.3950284 31.9192429,11.0137035 C31.3239117,10.2656909 31.0647319,9.18203155 31.0647319,7.80840379 C31.0647319,5.03061199 32.4842902,3.76348265 34.1324921,3.76348265" id="Fill-18" fill="#3F3F40"></path>
                            <path d="M39.4760379,1.06185489 L40.6505489,0.573274448 L40.8496656,0.573274448 L40.8496656,11.9446309 L39.4760379,11.9446309 L39.4760379,1.06185489 Z" id="Fill-20" fill="#3F3F40"></path>
                            <path d="M43.7347634,11.94453 L45.1083912,11.94453 L45.1083912,3.96194322 L43.7347634,3.96194322 L43.7347634,11.94453 Z M43.5212618,2.4813123 L45.2918612,2.4813123 L45.2918612,1.03147003 L43.5212618,1.03147003 L43.5212618,2.4813123 Z" id="Fill-22" fill="#3F3F40"></path>
                            <path d="M47.1544732,4.63341325 L48.2684164,4.63341325 L48.2684164,2.87846057 C48.2684164,2.32880757 48.2684164,1.73372871 48.8637476,1.13814511 C49.3523281,0.649817035 50.0241262,0.573350158 50.4362397,0.573350158 C50.7413502,0.573350158 51.2296782,0.603634069 51.6112555,0.787104101 L51.6112555,1.94697792 C51.3977539,1.84022713 51.1075331,1.70294006 50.6959243,1.70294006 C49.7038738,1.70294006 49.7038738,2.51202524 49.7038738,2.92439117 L49.7038738,4.60312934 L51.1075331,4.60312934 L51.1075331,5.51871293 L49.7038738,5.51871293 L49.7038738,11.9447066 L48.2684164,11.9447066 L48.2684164,5.51871293 L47.1544732,5.51871293 L47.1544732,4.63341325 Z" id="Fill-24" fill="#3F3F40"></path>
                            <path d="M57.0149905,7.16741956 C57.0149905,5.7937918 56.4958738,4.77095268 55.4119621,4.77095268 C54.7560631,4.77095268 54.2369464,5.16767192 53.9772618,5.77864984 C53.733224,6.35833438 53.718082,6.89284543 53.7026877,7.16741956 L57.0149905,7.16741956 Z M58.3886183,8.09839748 L53.6567571,8.09839748 C53.6421199,9.8841388 54.1604795,11.0745489 55.5800379,11.0745489 C56.5112681,11.0745489 56.9544227,10.6321514 57.1984606,10.4032555 L57.9918991,11.1356215 C57.4727823,11.5936656 56.8469148,12.1433186 55.3968202,12.1433186 C53.5502587,12.1433186 52.2525931,10.6775773 52.2525931,8.17461199 C52.2525931,4.11480126 54.6644543,3.77864984 55.3819306,3.77864984 C57.3052114,3.77864984 58.3275457,5.41196215 58.3734763,7.36552681 L58.3886183,8.09839748 Z" id="Fill-25" fill="#3F3F40"></path>
                        </g>
                    </g>
                </g>
            </g>
        </g>
    </g>
</svg>